<?xml version="1.0" standalone="no"?>
<!DOCTYPE svg PUBLIC "-//W3C//DTD SVG 20010904//EN"
 "http://www.w3.org/TR/2001/REC-SVG-20010904/DTD/svg10.dtd">
<svg version="1.0" xmlns="http://www.w3.org/2000/svg"
 width="500.000000pt" height="500.000000pt" viewBox="0 0 500.000000 500.000000"
 preserveAspectRatio="xMidYMid meet">

<g transform="translate(0.000000,500.000000) scale(0.100000,-0.100000)"
fill="#000000" stroke="none">
<path d="M2408 4913 c7 -3 16 -2 19 1 4 3 -2 6 -13 5 -11 0 -14 -3 -6 -6z"/>
<path d="M2478 4913 c18 -2 45 -2 60 0 15 2 0 4 -33 4 -33 0 -45 -2 -27 -4z"/>
<path d="M2213 4903 c9 -2 25 -2 35 0 9 3 1 5 -18 5 -19 0 -27 -2 -17 -5z"/>
<path d="M2658 4903 c6 -2 18 -2 25 0 6 3 1 5 -13 5 -14 0 -19 -2 -12 -5z"/>
<path d="M2128 4893 c12 -2 30 -2 40 0 9 3 -1 5 -23 4 -22 0 -30 -2 -17 -4z"/>
<path d="M2738 4893 c7 -3 16 -2 19 1 4 3 -2 6 -13 5 -11 0 -14 -3 -6 -6z"/>
<path d="M1988 4873 c6 -2 18 -2 25 0 6 3 1 5 -13 5 -14 0 -19 -2 -12 -5z"/>
<path d="M1948 4863 c7 -3 16 -2 19 1 4 3 -2 6 -13 5 -11 0 -14 -3 -6 -6z"/>
<path d="M2908 4863 c7 -3 16 -2 19 1 4 3 -2 6 -13 5 -11 0 -14 -3 -6 -6z"/>
<path d="M1658 4783 c7 -3 16 -2 19 1 4 3 -2 6 -13 5 -11 0 -14 -3 -6 -6z"/>
<path d="M1535 4740 c-3 -6 1 -7 9 -4 18 7 21 14 7 14 -6 0 -13 -4 -16 -10z"/>
<path d="M3340 4735 c14 -8 30 -14 35 -14 6 0 -1 6 -15 14 -14 8 -29 14 -35
14 -5 0 1 -6 15 -14z"/>
<path d="M1400 4680 c-9 -6 -10 -10 -3 -10 6 0 15 5 18 10 8 12 4 12 -15 0z"/>
<path d="M3620 4606 c0 -3 9 -10 20 -16 11 -6 20 -8 20 -6 0 3 -9 10 -20 16
-11 6 -20 8 -20 6z"/>
<path d="M2170 4370 l0 -101 57 3 c67 4 89 28 24 28 l-40 0 -3 82 c-3 70 -6
83 -20 86 -16 3 -18 -7 -18 -98z"/>
<path d="M2625 4427 c-37 -23 -54 -52 -55 -90 0 -52 52 -107 100 -107 49 0
100 55 100 108 0 71 -86 125 -145 89z m88 -45 c39 -34 10 -112 -42 -112 -56 1
-85 53 -55 98 10 15 18 30 17 33 -3 11 63 -4 80 -19z"/>
<path d="M1770 4420 c0 -5 -7 -7 -16 -3 -14 5 -16 1 -11 -28 4 -19 11 -64 18
-101 6 -38 16 -68 23 -68 25 0 86 22 86 30 0 6 6 9 13 8 18 -4 21 49 3 67 -8
8 -19 15 -25 15 -7 0 -7 8 1 25 9 21 8 28 -7 45 -19 21 -85 29 -85 10z m60
-44 c0 -13 -7 -27 -16 -30 -20 -8 -21 -8 -29 27 -6 24 -5 27 19 27 21 0 26 -5
26 -24z m25 -67 c4 -5 4 -20 1 -33 -4 -16 -12 -22 -28 -21 -39 3 -37 65 1 65
11 0 23 -5 26 -11z"/>
<path d="M914 4358 l-19 -23 23 19 c21 18 27 26 19 26 -2 0 -12 -10 -23 -22z"/>
<path d="M834 4288 l-19 -23 23 19 c21 18 27 26 19 26 -2 0 -12 -10 -23 -22z"/>
<path d="M3093 4280 c-64 -38 -72 -103 -20 -155 45 -45 97 -46 140 -4 32 32
32 35 2 41 -11 1 -26 9 -33 16 -18 16 -29 15 -36 -4 -4 -11 -2 -15 6 -11 7 2
19 -2 26 -9 10 -11 8 -15 -9 -24 -26 -15 -65 -5 -78 19 -15 28 -21 71 -9 71 5
0 7 7 4 16 -3 8 -2 12 3 9 5 -3 12 -1 16 5 3 5 22 10 41 10 28 0 38 -6 52 -29
21 -37 56 -51 46 -18 -11 36 -37 64 -70 76 -40 15 -44 14 -81 -9z"/>
<path d="M4140 4216 c0 -2 8 -10 18 -17 15 -13 16 -12 3 4 -13 16 -21 21 -21
13z"/>
<path d="M4192 4170 c7 -11 19 -22 28 -25 8 -4 4 5 -9 19 -29 31 -36 33 -19 6z"/>
<path d="M4230 4126 c0 -2 8 -10 18 -17 15 -13 16 -12 3 4 -13 16 -21 21 -21
13z"/>
<path d="M639 4083 c-13 -16 -12 -17 4 -4 16 13 21 21 13 21 -2 0 -10 -8 -17
-17z"/>
<path d="M539 3953 c-13 -16 -12 -17 4 -4 9 7 17 15 17 17 0 8 -8 3 -21 -13z"/>
<path d="M4385 3950 c10 -11 20 -20 23 -20 3 0 -3 9 -13 20 -10 11 -20 20 -23
20 -3 0 3 -9 13 -20z"/>
<path d="M3819 3880 c-1 -8 -1 -19 0 -23 1 -5 -3 -5 -9 -2 -10 6 -118 -100
-120 -116 0 -4 7 -10 16 -13 9 -4 24 4 38 20 20 24 24 25 38 11 30 -30 65 -31
93 -3 25 26 31 56 10 58 -5 0 -14 -9 -20 -21 -5 -11 -16 -21 -23 -21 -7 0 -11
-4 -8 -8 3 -5 -1 -9 -9 -9 -8 0 -12 4 -10 8 3 4 -2 9 -10 13 -20 7 -19 22 5
46 19 19 50 18 50 -3 0 -7 4 -7 12 1 10 10 5 19 -20 44 -22 22 -32 28 -33 18z"/>
<path d="M4460 3853 c0 -6 8 -17 18 -24 16 -13 16 -13 2 6 -8 11 -16 22 -17
24 -2 2 -3 0 -3 -6z"/>
<path d="M4530 3741 c5 -11 15 -23 21 -27 6 -3 3 5 -6 20 -20 30 -30 35 -15 7z"/>
<path d="M4590 3641 c0 -6 4 -13 10 -16 6 -3 7 1 4 9 -7 18 -14 21 -14 7z"/>
<path d="M4655 3520 c9 -16 18 -30 21 -30 2 0 -2 14 -11 30 -9 17 -18 30 -21
30 -2 0 2 -13 11 -30z"/>
<path d="M4063 3530 c-13 -5 -32 -24 -43 -42 -27 -43 -20 -84 20 -120 50 -46
132 -31 158 28 20 43 14 74 -22 110 -35 35 -68 42 -113 24z m93 -47 c16 -22
18 -57 4 -84 -16 -28 -84 -27 -104 3 -33 47 -6 98 51 98 22 0 41 -7 49 -17z"/>
<path d="M1910 3485 c0 -4 11 -16 24 -26 50 -39 51 -56 51 -609 0 -475 -1
-518 -18 -548 -10 -18 -26 -38 -37 -45 -11 -6 -20 -15 -20 -20 0 -4 93 -7 208
-7 114 0 222 1 240 0 l33 0 -1 -297 c-1 -226 -5 -306 -15 -330 -8 -18 -11 -33
-8 -33 17 0 -24 -31 -51 -39 -20 -5 28 -8 139 -8 131 0 164 2 145 11 -29 12
-45 26 -46 41 -3 26 -17 55 -28 55 -7 0 -7 3 1 8 10 6 11 39 5 139 l-7 132 54
53 c29 29 56 52 60 51 3 -1 22 8 41 19 19 12 42 23 50 24 8 2 16 7 18 13 2 5
11 7 20 4 15 -5 14 -3 -2 13 -13 14 -20 15 -23 6 -3 -6 -9 -10 -14 -6 -5 3 -9
2 -9 -3 0 -4 -24 -21 -52 -38 -28 -16 -67 -45 -85 -63 -18 -18 -37 -30 -42
-27 -5 3 -10 62 -10 131 -1 70 -4 130 -6 134 -2 4 32 12 76 18 177 25 277 128
296 304 5 46 9 55 22 50 9 -3 20 -11 24 -19 4 -7 13 -13 18 -13 22 0 52 -49
63 -102 7 -30 -11 -126 -26 -145 -5 -7 -6 -18 -2 -25 4 -7 4 -10 0 -7 -11 10
-69 -47 -62 -60 5 -7 1 -8 -10 -4 -12 4 -15 3 -10 -6 4 -6 4 -10 -1 -9 -13 4
-54 -22 -48 -31 2 -5 -3 -8 -13 -7 -9 0 -16 -4 -15 -11 2 -7 -3 -10 -10 -8 -6
2 -25 -6 -41 -19 -27 -22 -27 -25 -10 -34 15 -8 43 1 131 41 125 58 166 85
166 110 0 9 4 14 9 11 10 -6 25 8 57 54 28 40 40 137 21 182 -7 16 -17 27 -23
23 -6 -3 -7 -1 -3 5 8 14 -35 57 -78 79 -16 8 -46 16 -68 17 -21 0 -38 4 -38
8 0 4 -12 6 -26 5 -24 -2 -28 4 -44 52 -10 29 -31 72 -47 95 -37 53 -133 119
-173 119 -16 0 -30 4 -30 8 0 4 -12 9 -27 11 -24 3 -17 9 56 48 46 25 104 65
128 89 43 43 81 101 66 101 -5 0 -2 4 5 9 18 11 26 108 13 157 -17 63 -72 114
-160 147 -52 20 -80 21 -428 25 -205 2 -373 0 -373 -3z m651 -45 c34 -10 67
-16 72 -13 6 3 7 2 4 -4 -7 -12 38 -54 48 -45 4 4 6 3 5 -3 -4 -19 0 -36 8
-31 15 9 14 -131 -2 -169 -9 -20 -13 -42 -9 -48 3 -5 1 -7 -5 -3 -6 3 -13 -3
-17 -13 -11 -35 -116 -121 -277 -227 -86 -57 -173 -118 -192 -135 l-36 -31 0
371 0 371 169 0 c140 0 180 -3 232 -20z m24 -611 c58 -31 91 -65 115 -121 36
-83 43 -80 -189 -80 -184 1 -202 -1 -182 -14 44 -31 55 -71 59 -216 l4 -138
-116 0 -116 0 0 211 c0 199 1 212 21 237 11 15 22 25 24 22 2 -3 18 9 37 25
33 30 107 70 156 85 54 17 145 11 187 -11z m142 -285 c-9 -120 -72 -222 -159
-259 l-38 -15 0 169 c0 104 4 171 10 173 6 2 51 3 101 3 l92 0 -6 -71z m348
26 c3 -6 -1 -7 -9 -4 -18 7 -21 14 -7 14 6 0 13 -4 16 -10z"/>
<path d="M4730 3355 c0 -5 5 -17 10 -25 5 -8 10 -10 10 -5 0 6 -5 17 -10 25
-5 8 -10 11 -10 5z"/>
<path d="M4776 3227 c3 -10 9 -15 12 -12 3 3 0 11 -7 18 -10 9 -11 8 -5 -6z"/>
<path d="M173 3154 c-6 -25 -7 -42 -3 -37 9 9 25 83 18 83 -3 0 -9 -21 -15
-46z"/>
<path d="M4810 3126 c0 -8 4 -17 9 -20 5 -4 7 3 4 14 -6 23 -13 26 -13 6z"/>
<path d="M4341 3111 c-16 -16 -19 -29 -14 -74 4 -44 2 -55 -10 -60 -30 -11
-61 55 -37 79 5 5 6 15 0 23 -14 23 -40 -5 -40 -43 0 -35 26 -80 41 -70 5 3 8
0 7 -8 -5 -20 42 -21 64 -1 17 16 19 26 13 76 l-6 57 30 -2 c28 -2 29 -4 26
-45 -4 -46 8 -65 23 -36 15 27 6 73 -19 99 -27 29 -53 30 -78 5z"/>
<path d="M156 3083 c-13 -49 -17 -87 -8 -78 5 6 12 29 16 53 6 42 2 57 -8 25z"/>
<path d="M4832 3060 c0 -14 2 -19 5 -12 2 6 2 18 0 25 -3 6 -5 1 -5 -13z"/>
<path d="M4840 3016 c0 -8 4 -17 9 -20 5 -4 7 3 4 14 -6 23 -13 26 -13 6z"/>
<path d="M126 2933 c-3 -27 -2 -51 4 -57 7 -7 10 1 10 25 0 18 3 44 6 57 4 12
2 22 -3 22 -6 0 -13 -21 -17 -47z"/>
<path d="M4861 2934 c0 -11 3 -14 6 -6 3 7 2 16 -1 19 -3 4 -6 -2 -5 -13z"/>
<path d="M118 2853 c-12 -54 -17 -407 -6 -483 5 -36 11 -92 13 -125 6 -99 77
-401 115 -490 7 -16 15 -39 17 -50 2 -10 8 -22 14 -26 6 -3 10 -9 10 -13 -4
-25 0 -36 11 -30 6 4 8 3 5 -3 -9 -14 44 -134 55 -127 5 3 8 0 7 -7 -5 -23 12
-60 23 -53 6 4 8 2 5 -3 -8 -12 20 -73 33 -73 5 0 7 -7 4 -15 -4 -8 -1 -15 5
-15 6 0 10 -3 9 -7 -2 -14 14 -43 21 -38 4 2 8 -2 8 -9 0 -23 44 -86 55 -80 7
5 8 2 3 -6 -4 -7 -4 -15 1 -19 5 -3 14 -15 21 -26 6 -11 16 -19 23 -17 6 1 8
-3 4 -9 -4 -7 3 -20 17 -31 13 -11 17 -16 9 -12 -8 5 3 -13 24 -39 21 -26 40
-47 41 -47 2 0 1 10 -3 23 -5 22 -5 22 16 3 22 -19 31 -43 13 -31 -17 10 -21
-12 -6 -25 8 -7 15 -11 16 -9 7 35 5 46 -8 61 -15 16 -11 22 10 19 4 0 7 6 7
15 0 10 -5 12 -12 7 -31 -19 -62 -3 -39 20 8 8 11 7 11 -4 1 -10 4 -9 11 4 10
18 13 17 40 -9 16 -15 29 -24 29 -20 0 5 8 2 18 -5 14 -11 14 -10 -2 8 -10 13
-22 20 -26 18 -10 -6 -32 20 -24 28 4 4 -3 5 -14 2 -12 -2 -24 1 -27 6 -4 5
-11 7 -16 4 -5 -4 -9 0 -9 7 0 7 -5 5 -11 -6 -9 -14 -8 -20 2 -27 10 -6 10 -9
2 -9 -7 0 -10 -7 -7 -17 5 -15 4 -15 -4 -3 -6 8 -9 17 -6 21 2 4 0 10 -5 14
-14 8 9 56 23 48 6 -3 7 -2 3 2 -13 14 -36 14 -31 0 3 -7 2 -15 -3 -18 -5 -3
-9 2 -10 11 -1 9 -3 26 -6 37 -5 24 11 47 27 38 6 -4 5 1 -3 10 -14 18 -26 24
-17 8 3 -5 -1 -14 -9 -21 -8 -7 -13 -16 -10 -20 3 -5 2 -11 -3 -14 -5 -3 -7
22 -6 54 0 33 -2 58 -6 55 -4 -2 -7 2 -7 10 0 8 5 12 11 9 6 -3 4 0 -4 8 -22
19 -51 88 -44 100 4 6 3 8 -2 5 -6 -3 -16 3 -23 15 -10 16 -10 19 1 12 7 -5 5
3 -5 16 -29 41 -59 89 -58 95 1 3 -5 18 -14 35 -19 38 -19 49 1 24 14 -17 14
-17 1 11 -8 17 -24 53 -36 80 -22 52 -21 51 32 -17 9 -13 3 2 -14 32 -18 30
-37 65 -44 77 -7 13 -16 19 -20 15 -5 -4 -5 -2 -2 5 4 6 -6 37 -22 70 -16 32
-32 68 -35 81 -4 12 -11 20 -16 17 -4 -3 -6 5 -2 17 3 13 1 19 -5 15 -6 -4
-11 3 -11 16 0 12 -6 36 -13 52 -30 72 -82 284 -94 380 -3 22 -6 120 -8 217
-1 98 -5 178 -9 178 -5 0 -9 -3 -10 -7z m558 -1755 c3 -4 -1 -5 -10 -4 -8 1
-18 5 -22 8 -3 4 1 5 10 4 8 -1 18 -5 22 -8z m-16 -52 c0 -3 -4 -8 -10 -11 -5
-3 -10 -1 -10 4 0 6 5 11 10 11 6 0 10 -2 10 -4z"/>
<path d="M4882 2825 c0 -16 2 -22 5 -12 2 9 2 23 0 30 -3 6 -5 -1 -5 -18z"/>
<path d="M4892 2755 c0 -16 2 -22 5 -12 2 9 2 23 0 30 -3 6 -5 -1 -5 -18z"/>
<path d="M4542 2698 l3 -33 -77 -20 c-70 -17 -94 -34 -70 -49 5 -3 42 3 83 14
79 19 89 18 89 -9 0 -24 11 -33 26 -20 10 8 8 24 -7 77 -10 37 -19 68 -19 69
0 2 -7 3 -15 3 -11 0 -14 -9 -13 -32z"/>
<path d="M4902 2675 c0 -16 2 -22 5 -12 2 9 2 23 0 30 -3 6 -5 -1 -5 -18z"/>
<path d="M4911 2614 c0 -11 3 -14 6 -6 3 7 2 16 -1 19 -3 4 -6 -2 -5 -13z"/>
<path d="M1878 2233 c7 -3 16 -2 19 1 4 3 -2 6 -13 5 -11 0 -14 -3 -6 -6z"/>
<path d="M4891 2084 c0 -11 3 -14 6 -6 3 7 2 16 -1 19 -3 4 -6 -2 -5 -13z"/>
<path d="M4871 1954 c0 -11 3 -14 6 -6 3 7 2 16 -1 19 -3 4 -6 -2 -5 -13z"/>
<path d="M450 1641 c5 -11 15 -23 21 -27 6 -3 3 5 -6 20 -20 30 -30 35 -15 7z"/>
<path d="M494 1580 c9 -14 21 -35 26 -47 5 -13 15 -23 22 -22 10 0 10 2 1 6
-7 2 -13 10 -13 16 -1 7 -12 26 -27 42 -18 21 -21 23 -9 5z"/>
<path d="M596 1281 c-12 -13 -14 -21 -6 -26 6 -3 9 -1 8 6 -2 7 2 13 9 14 16
0 26 12 15 19 -5 3 -17 -3 -26 -13z"/>
<path d="M683 1227 c0 -8 6 -14 14 -14 9 0 10 4 2 14 -6 7 -12 13 -14 13 -1 0
-2 -6 -2 -13z"/>
<path d="M740 1226 c0 -2 8 -10 18 -17 15 -13 16 -12 3 4 -13 16 -21 21 -21
13z"/>
<path d="M666 1158 c3 -5 10 -6 15 -3 13 9 11 12 -6 12 -8 0 -12 -4 -9 -9z"/>
<path d="M730 1136 c0 -2 8 -10 18 -17 15 -13 16 -12 3 4 -13 16 -21 21 -21
13z"/>
<path d="M724 1037 c2 -19 27 -49 34 -42 3 3 12 -1 21 -7 10 -8 9 -5 -3 9 -10
12 -23 21 -29 20 -6 -1 -11 3 -12 10 0 6 -3 14 -7 18 -3 4 -6 0 -4 -8z"/>
<path d="M726 982 c-3 -5 7 -20 22 -33 18 -16 21 -17 10 -4 -9 11 -17 24 -16
28 0 14 -10 19 -16 9z"/>
<path d="M720 926 c0 -2 8 -10 18 -17 15 -13 16 -12 3 4 -13 16 -21 21 -21 13z"/>
<path d="M786 922 c-3 -5 1 -9 9 -9 8 0 12 4 9 9 -3 4 -7 8 -9 8 -2 0 -6 -4
-9 -8z"/>
<path d="M766 892 c-3 -5 1 -9 9 -9 8 0 12 4 9 9 -3 4 -7 8 -9 8 -2 0 -6 -4
-9 -8z"/>
<path d="M800 866 c0 -2 8 -10 18 -17 15 -13 16 -12 3 4 -13 16 -21 21 -21 13z"/>
<path d="M840 857 c0 -2 15 -16 33 -33 l32 -29 -29 33 c-28 30 -36 37 -36 29z"/>
<path d="M4304 828 l-19 -23 23 19 c21 18 27 26 19 26 -2 0 -12 -10 -23 -22z"/>
<path d="M910 736 c0 -2 8 -10 18 -17 15 -13 16 -12 3 4 -13 16 -21 21 -21 13z"/>
<path d="M4119 643 c-13 -16 -12 -17 4 -4 16 13 21 21 13 21 -2 0 -10 -8 -17
-17z"/>
<path d="M2020 620 c8 -5 20 -10 25 -10 6 0 3 5 -5 10 -8 5 -19 10 -25 10 -5
0 -3 -5 5 -10z"/>
<path d="M4019 563 c-13 -16 -12 -17 4 -4 16 13 21 21 13 21 -2 0 -10 -8 -17
-17z"/>
<path d="M3900 479 c-22 -18 -22 -19 -3 -10 12 6 25 16 28 21 9 15 3 12 -25
-11z"/>
<path d="M3805 427 c-11 -7 -22 -14 -25 -17 -3 -3 -10 -5 -15 -5 -6 0 -40 -13
-77 -30 -46 -20 -66 -34 -63 -44 4 -10 2 -11 -8 -3 -9 8 -24 8 -55 -1 -24 -7
-40 -16 -36 -19 3 -4 -3 -4 -13 -2 -10 3 -38 -1 -62 -9 -52 -18 -386 -15 -416
5 -5 3 -34 13 -64 22 l-55 16 22 -20 c26 -25 28 -35 6 -26 -14 5 -15 4 -5 -8
8 -9 42 -18 84 -23 40 -4 60 -9 45 -11 -16 -2 -28 -8 -28 -13 0 -5 -19 -10
-42 -10 -32 -1 -37 -3 -18 -8 18 -4 9 -7 -35 -12 -38 -5 -9 -6 80 -4 77 1 129
-1 115 -5 -14 -5 -51 -8 -82 -9 -31 -1 -60 -5 -63 -11 -3 -6 1 -10 9 -10 19 0
21 -16 4 -23 -7 -3 12 -3 42 0 30 3 51 2 47 -3 -7 -7 -46 -14 -87 -15 -8 0
-22 -3 -30 -6 -8 -3 -31 -5 -50 -5 l-35 1 37 -8 c41 -8 201 16 193 29 -3 5 3
6 12 4 18 -5 198 45 258 70 17 7 55 23 85 36 121 49 240 112 233 122 -4 7 0 9
10 5 10 -3 17 -2 17 4 0 6 5 7 12 3 7 -5 8 -3 3 6 -6 10 -4 12 8 7 10 -4 27 3
44 18 30 26 30 31 -2 12z m-130 -77 c-3 -5 -12 -10 -18 -10 -7 0 -6 4 3 10 19
12 23 12 15 0z"/>
<path d="M2798 233 c7 -3 16 -2 19 1 4 3 -2 6 -13 5 -11 0 -14 -3 -6 -6z"/>
<path d="M2918 233 c7 -3 16 -2 19 1 4 3 -2 6 -13 5 -11 0 -14 -3 -6 -6z"/>
<path d="M2868 223 c6 -2 18 -2 25 0 6 3 1 5 -13 5 -14 0 -19 -2 -12 -5z"/>
<path d="M2758 193 c6 -2 18 -2 25 0 6 3 1 5 -13 5 -14 0 -19 -2 -12 -5z"/>
<path d="M2628 183 c7 -3 16 -2 19 1 4 3 -2 6 -13 5 -11 0 -14 -3 -6 -6z"/>
<path d="M2877 183 c18 -2 50 -2 70 0 21 2 7 4 -32 4 -38 0 -55 -2 -38 -4z"/>
<path d="M2728 173 c7 -3 16 -2 19 1 4 3 -2 6 -13 5 -11 0 -14 -3 -6 -6z"/>
<path d="M2558 163 c7 -3 16 -2 19 1 4 3 -2 6 -13 5 -11 0 -14 -3 -6 -6z"/>
<path d="M2653 153 c9 -2 23 -2 30 0 6 3 -1 5 -18 5 -16 0 -22 -2 -12 -5z"/>
<path d="M2958 153 c6 -2 18 -2 25 0 6 3 1 5 -13 5 -14 0 -19 -2 -12 -5z"/>
<path d="M2228 143 c7 -3 16 -2 19 1 4 3 -2 6 -13 5 -11 0 -14 -3 -6 -6z"/>
<path d="M2278 133 c7 -3 16 -2 19 1 4 3 -2 6 -13 5 -11 0 -14 -3 -6 -6z"/>
<path d="M2558 133 c7 -3 16 -2 19 1 4 3 -2 6 -13 5 -11 0 -14 -3 -6 -6z"/>
<path d="M2903 133 c9 -2 23 -2 30 0 6 3 -1 5 -18 5 -16 0 -22 -2 -12 -5z"/>
<path d="M2328 123 c6 -2 18 -2 25 0 6 3 1 5 -13 5 -14 0 -19 -2 -12 -5z"/>
<path d="M2528 103 c6 -2 18 -2 25 0 6 3 1 5 -13 5 -14 0 -19 -2 -12 -5z"/>
<path d="M2593 103 c9 -2 25 -2 35 0 9 3 1 5 -18 5 -19 0 -27 -2 -17 -5z"/>
<path d="M2833 103 c9 -2 25 -2 35 0 9 3 1 5 -18 5 -19 0 -27 -2 -17 -5z"/>
<path d="M2818 83 c7 -3 16 -2 19 1 4 3 -2 6 -13 5 -11 0 -14 -3 -6 -6z"/>
<path d="M2508 73 c6 -2 18 -2 25 0 6 3 1 5 -13 5 -14 0 -19 -2 -12 -5z"/>
<path d="M2568 73 c6 -2 18 -2 25 0 6 3 1 5 -13 5 -14 0 -19 -2 -12 -5z"/>
<path d="M2648 73 c7 -3 16 -2 19 1 4 3 -2 6 -13 5 -11 0 -14 -3 -6 -6z"/>
</g>
</svg>
